M48
;Layer_Color=9474304
;FILE_FORMAT=2:5
INCH,LZ
;TYPE=PLATED
T1F00S00C0.03150
T2F00S00C0.03937
T3F00S00C0.04724
T4F00S00C0.09843
%
T01
X0292992Y0019685
X0332992
X0720157Y0062992
X0708661Y0081693
Y0091535
Y0101378
Y0111221
X0720157Y0137795
Y0153543
X0760157
Y0137795
Y0062992
X0661732
X0677165Y0081693
Y0091535
X0677264Y0101476
Y0111417
X0661732Y0137795
Y0153543
X0621732
Y0137795
X0563307
Y0153543
Y0062992
X0621732
X0523307
X0509842Y0081693
Y0091535
Y0101378
Y0111221
X0478445Y0111417
Y0101476
X0478346Y0091535
Y0081693
X0464882Y0062992
X0424882
Y0137795
Y0153543
X0464882
Y0137795
X0523307
Y0153543
X0366457
Y0137795
X0326457
Y0153543
X0312992Y0111221
Y0101378
Y0091535
Y0081693
X0281496
Y0091535
X0281594Y0101476
Y0111417
X0268032Y0137795
Y0153543
X0228031
Y0137795
Y0062992
X0268032
X0326457
X0366457
X0169606
X0129606
X0114173Y0081693
Y0091535
Y0101378
Y0111221
X0082776Y0111417
Y0101476
X0082677Y0091535
Y0081693
X0071181Y0062992
Y0137795
Y0153543
X0129606
Y0137795
X0169606
Y0153543
X0031181
Y0137795
Y0062992
T02
X0035433Y003937
X0045433
X0156417Y0037402
X0166417
X0233189
X0243189
X029315
X030315
X0353268
X0363268
X0389764Y0019685
X0399606
X0430039Y0037402
X0440039
X0550118
X0560118
X0625984
X0635984
X0746969
X0756968
X0698819Y0062992
X0688976
X0714567Y0177165
X0724567
X0753937
X0763937
X0665512
X0655512
X0626142
X0616142
X0567087
X0557087
X0527716
X0517717
X0468661
X0458661
X0429291
X0419291
X0370236
X0490158Y0062992
X05
X030315
X0293307
X0271811Y0177165
X0261811
X0232441
X0222441
X0320866
X0330866
X0360236
X0173386
X0163386
X0134016
X0124016
X0074961
X0064961
X0094488Y0062992
X0104331
X0035591Y0177165
X0025591
T03
X0729095Y0100894
X0750595Y0090894
Y0110894
X0652795Y0101862
X0631295Y0111862
Y0091862
X0553744Y0090894
Y0110894
X0532244Y0100894
X0455945Y0101862
X0434445Y0111862
Y0091862
X0356894Y0090894
Y0110894
X0335394Y0100894
X0259095Y0101862
X0237595Y0111862
Y0091862
X0160043Y0090894
Y0110894
X0138543Y0100894
X0062244Y0101862
X0040744Y0111862
Y0091862
T04
X0019685Y0019685
X0767717
X0592538Y0148062
X019685Y0147638
M30
